<svg width="74" height="74" viewBox="0 0 74 74" fill="none" xmlns="http://www.w3.org/2000/svg">
<path fill-rule="evenodd" clip-rule="evenodd" d="M46.25 58.5834C58.1701 58.5834 67.8333 48.9202 67.8333 37.0001C67.8333 25.0799 58.1701 15.4167 46.25 15.4167C37.3415 15.4167 29.6936 20.8139 26.3977 28.5167C24.8829 28.0192 23.2646 27.7501 21.5833 27.7501C13.0689 27.7501 6.16666 34.6524 6.16666 43.1668C6.16666 51.6811 13.0689 58.5834 21.5833 58.5834H46.25ZM37.6386 48.4303L46.8886 39.1803C48.0927 37.9762 48.0927 36.024 46.8886 34.8198C45.6845 33.6157 43.7322 33.6157 42.5281 34.8198L35.4583 41.8896L33.0136 39.4448C31.8095 38.2407 29.8572 38.2407 28.6531 39.4448C27.449 40.649 27.449 42.6012 28.6531 43.8053L33.2781 48.4303C34.4822 49.6344 36.4345 49.6344 37.6386 48.4303Z" fill="#7E5FFB"/>
</svg>
