<svg width="56" height="56" viewBox="0 0 56 56" fill="none" xmlns="http://www.w3.org/2000/svg">
<path d="M28.3971 23.7201L29.1758 23.8657L33.7825 13.0736L29.9163 24.1525L30.5899 24.5696L38.7841 16.1704L31.1768 25.1046L31.6542 25.7369L42.3292 20.8649L32.0082 26.4477L32.225 27.2097L43.9391 26.523L32.2983 28.0005L32.2252 28.7894L43.3963 32.3806L32.0079 29.5531L31.6547 30.2624L40.7742 37.6466L31.1762 30.8961L30.5907 31.4298L36.4268 41.6098L29.9155 31.8479L29.1767 32.1341L30.9413 43.7348L28.3961 32.28H27.6039L25.0586 43.7348L26.8233 32.1341L26.0845 31.8479L19.5732 41.6098L25.4093 31.4298L24.8238 30.8961L15.2258 37.6466L24.3453 30.2624L23.9921 29.5531L12.6037 32.3806L23.7748 28.7894L23.7017 28.0005L12.0609 26.523L23.775 27.2097L23.9918 26.4477L13.6708 20.8649L24.3458 25.7369L24.8232 25.1046L17.2159 16.1704L25.4101 24.5696L26.0837 24.1525L22.2175 13.0736L26.8242 23.8657L27.6029 23.7201L28 11.9926L28.3971 23.7201Z" stroke="white" stroke-width="0.811594"/>
</svg>
