<svg width="144" height="97" viewBox="0 0 144 97" fill="none" xmlns="http://www.w3.org/2000/svg">
<circle cx="8.96701" cy="46.4778" r="6.3" transform="rotate(19.9325 8.96701 46.4778)" fill="white" stroke="white" stroke-width="1.4"/>
<path d="M143.408 45.3415L137.844 39.4783L135.549 47.2282L143.408 45.3415ZM137.528 42.8707C120.116 38.6947 92.2138 39.3253 73.2511 54.8209L74.137 55.905C92.6303 40.793 120.018 40.111 137.202 44.2321L137.528 42.8707ZM73.2511 54.8209C70.5787 57.0047 68.843 58.9703 67.9177 60.7184C66.9858 62.4788 66.8456 64.0884 67.5062 65.4461C68.1524 66.7742 69.4848 67.691 71.1253 68.2728C72.7764 68.8584 74.8297 69.1393 77.0765 69.1337C81.5714 69.1226 86.9715 67.9645 91.7584 65.6182C96.5425 63.2734 100.786 59.7044 102.847 54.8251L101.557 54.2805C99.6711 58.7466 95.7406 62.1073 91.1423 64.3611C86.5468 66.6135 81.3564 67.7231 77.073 67.7337C74.9306 67.739 73.0478 67.4693 71.5933 66.9534C70.1283 66.4337 69.1858 65.6981 68.7651 64.8336C68.3589 63.9987 68.36 62.8754 69.155 61.3733C69.9567 59.8589 71.5336 58.0323 74.137 55.905L73.2511 54.8209ZM102.847 54.8251C103.874 52.3917 104.207 50.0767 103.835 47.9284C103.462 45.7765 102.392 43.8468 100.705 42.1744C97.3534 38.8522 91.5525 36.5249 83.7539 35.3342C68.1287 32.9487 44.0598 35.0627 14.0654 43.5397L14.4462 44.887C44.3452 36.4368 68.1952 34.375 83.5426 36.7182C91.2303 37.8919 96.6792 40.1552 99.7193 43.1687C101.228 44.6642 102.139 46.3387 102.455 48.1673C102.773 49.9994 102.502 52.041 101.557 54.2805L102.847 54.8251Z" fill="white"/>
</svg>
