<svg width="59" height="59" viewBox="0 0 59 59" fill="none" xmlns="http://www.w3.org/2000/svg">
<circle cx="29.5" cy="29.5" r="29.5" fill="#FFE9C2"/>
<path d="M29.2194 39.4627C29.1263 39.3258 29.0639 39.1671 29.0256 39H30.9743C30.936 39.1671 30.8737 39.3258 30.7805 39.4627C30.6572 39.6439 30.4407 39.8472 30 39.9723C29.5593 39.8472 29.3428 39.6439 29.2194 39.4627ZM31.166 39C31.166 39 31.1659 39 31.1659 39H31.166ZM28.834 39H28.8341C28.834 39 28.834 39 28.834 39Z" stroke="#FCA000" stroke-width="2" stroke-linecap="round" stroke-linejoin="round"/>
<path fill-rule="evenodd" clip-rule="evenodd" d="M24.9999 25.1655C25.7498 22.9162 28.1861 20.3857 29.3583 19.2602C29.7197 18.9133 30.2803 18.9133 30.6416 19.2602C31.8139 20.3857 34.2502 22.9161 34.9999 25.1655C35.3826 26.3135 35.3451 27.9691 35.1244 29.668C36.7236 29.7333 38 31.0503 38 32.6655V36.797C38 37.5957 37.1099 38.0721 36.4453 37.629L33.5254 35.6824C32.9898 36.2977 32.1922 36.6655 31.3297 36.6655H28.6622C27.8014 36.6655 27.0051 36.2991 26.4699 35.6856L23.5547 37.629C22.8901 38.0721 22 37.5957 22 36.797V32.6655C22 31.0536 23.2712 29.7386 24.8658 29.6684C24.6476 27.9766 24.6136 26.3244 24.9999 25.1655ZM30 28.6655C31.1046 28.6655 32 27.7701 32 26.6655C32 25.5609 31.1046 24.6655 30 24.6655C28.8954 24.6655 28 25.5609 28 26.6655C28 27.7701 28.8954 28.6655 30 28.6655Z" fill="#FCA000"/>
</svg>
