<svg width="59" height="59" viewBox="0 0 59 59" fill="none" xmlns="http://www.w3.org/2000/svg">
<circle cx="29.5" cy="29.5" r="29.5" fill="#C2E1FF"/>
<path fill-rule="evenodd" clip-rule="evenodd" d="M24 22C23.4477 22 23 22.4477 23 23V37C23 37.5523 23.4477 38 24 38H36C36.5523 38 37 37.5523 37 37V30C37 29.4477 37.4477 29 38 29C38.5523 29 39 29.4477 39 30V37C39 38.6569 37.6569 40 36 40H24C22.3431 40 21 38.6569 21 37V23C21 21.3431 22.3431 20 24 20H30C30.5523 20 31 20.4477 31 21C31 21.5523 30.5523 22 30 22H24Z" fill="#0080FF"/>
<path d="M37.4958 21.7678C36.5195 20.7914 34.9366 20.7914 33.9602 21.7678L33.2531 22.4749C33.0579 22.6701 33.0579 22.9867 33.2531 23.182L36.7887 26.7175C36.9839 26.9128 37.3005 26.9128 37.4958 26.7175L38.2029 26.0104C39.1792 25.0341 39.1792 23.4512 38.2029 22.4749L37.4958 21.7678Z" fill="#0080FF"/>
<path d="M31.8389 24.5962C31.6436 24.4009 31.327 24.4009 31.1318 24.5962L26.0642 29.6638C25.9112 29.8168 25.8119 30.0153 25.7813 30.2295L25.3099 33.5293C25.2157 34.1893 25.7813 34.755 26.4413 34.6607L29.7411 34.1893C29.9553 34.1587 30.1538 34.0594 30.3068 33.9064L35.3744 28.8388C35.5697 28.6436 35.5697 28.327 35.3744 28.1317L31.8389 24.5962Z" fill="#0080FF"/>
</svg>
