<svg width="26" height="25" viewBox="0 0 26 25" fill="none" xmlns="http://www.w3.org/2000/svg">
<path fill-rule="evenodd" clip-rule="evenodd" d="M6.75 2.08334C5.02411 2.08334 3.625 3.48245 3.625 5.20834V19.7917C3.625 21.5176 5.02411 22.9167 6.75 22.9167H19.25C20.9759 22.9167 22.375 21.5176 22.375 19.7917V8.06525C22.375 7.23645 22.0458 6.4416 21.4597 5.85555L18.6028 2.99863C18.0167 2.41258 17.2219 2.08334 16.3931 2.08334H6.75ZM16.125 4.3824V6.25C16.125 7.40059 17.0577 8.33333 18.2083 8.33333H20.0759C20.5399 8.33333 20.7723 7.77232 20.4442 7.44421L17.0141 4.01412C16.686 3.68601 16.125 3.91839 16.125 4.3824ZM7.79167 11.4583C7.79167 10.883 8.25804 10.4167 8.83333 10.4167H17.1667C17.742 10.4167 18.2083 10.883 18.2083 11.4583C18.2083 12.0336 17.742 12.5 17.1667 12.5H8.83333C8.25804 12.5 7.79167 12.0336 7.79167 11.4583ZM8.83333 14.5833C8.25804 14.5833 7.79167 15.0497 7.79167 15.625C7.79167 16.2003 8.25804 16.6667 8.83333 16.6667H13C13.5753 16.6667 14.0417 16.2003 14.0417 15.625C14.0417 15.0497 13.5753 14.5833 13 14.5833H8.83333Z" fill="white"/>
</svg>
