<svg width="74" height="74" viewBox="0 0 74 74" fill="none" xmlns="http://www.w3.org/2000/svg">
<path fill-rule="evenodd" clip-rule="evenodd" d="M9.25 18.5C9.25 13.3914 13.3914 9.25 18.5 9.25H55.5C60.6086 9.25 64.75 13.3914 64.75 18.5V24.6667C64.75 29.7753 60.6086 33.9167 55.5 33.9167H18.5C13.3914 33.9167 9.25 29.7753 9.25 24.6667V18.5ZM16.9583 21.5833C16.9583 19.8805 18.3388 18.5 20.0417 18.5H41.625C43.3279 18.5 44.7083 19.8805 44.7083 21.5833C44.7083 23.2862 43.3279 24.6667 41.625 24.6667H20.0417C18.3388 24.6667 16.9583 23.2862 16.9583 21.5833ZM53.9583 24.6667C55.6612 24.6667 57.0417 23.2862 57.0417 21.5833C57.0417 19.8805 55.6612 18.5 53.9583 18.5C52.2555 18.5 50.875 19.8805 50.875 21.5833C50.875 23.2862 52.2555 24.6667 53.9583 24.6667Z" fill="#FFBF56"/>
<path fill-rule="evenodd" clip-rule="evenodd" d="M9.25 49.3333C9.25 44.2246 13.3914 40.0833 18.5 40.0833H55.5C60.6086 40.0833 64.75 44.2246 64.75 49.3333V55.4999C64.75 60.6086 60.6086 64.7499 55.5 64.7499H18.5C13.3914 64.7499 9.25 60.6086 9.25 55.4999V49.3333ZM16.9583 52.4166C16.9583 50.7137 18.3388 49.3333 20.0417 49.3333H41.625C43.3279 49.3333 44.7083 50.7137 44.7083 52.4166C44.7083 54.1195 43.3279 55.4999 41.625 55.4999H20.0417C18.3388 55.4999 16.9583 54.1195 16.9583 52.4166ZM53.9583 55.4999C55.6612 55.4999 57.0417 54.1195 57.0417 52.4166C57.0417 50.7137 55.6612 49.3333 53.9583 49.3333C52.2555 49.3333 50.875 50.7137 50.875 52.4166C50.875 54.1195 52.2555 55.4999 53.9583 55.4999Z" fill="#FFBF56"/>
</svg>
