<svg width="26" height="25" viewBox="0 0 26 25" fill="none" xmlns="http://www.w3.org/2000/svg">
<path fill-rule="evenodd" clip-rule="evenodd" d="M19.0521 14.9922C19.2959 14.8077 19.5129 14.5873 19.6948 14.3368C20.0827 13.8029 20.2917 13.1599 20.2917 12.5C20.2917 11.8401 20.0827 11.1971 19.6948 10.6632C19.5128 10.4126 19.2957 10.1921 19.0516 10.0075C18.9923 9.96262 18.9353 9.91389 18.8815 9.86188C18.8321 9.81421 18.7854 9.76379 18.742 9.71104C18.4663 9.37657 18.3205 8.94873 18.4542 8.53726C18.632 7.99012 19.2272 7.68214 19.7282 7.96508C19.9299 8.07905 20.1237 8.20628 20.3083 8.34585M20.3083 8.34585C20.7149 8.65339 21.0769 9.02108 21.3803 9.43862C22.0268 10.3284 22.375 11.4001 22.375 12.5C22.375 13.5999 22.0268 14.6715 21.3803 15.5614C21.0769 15.979 20.715 16.3466 20.3083 16.6541C20.1237 16.7937 19.9299 16.9209 19.7282 17.0349C19.2272 17.3179 18.632 17.0099 18.4542 16.4627C18.3205 16.0513 18.4663 15.6234 18.742 15.289C18.7854 15.2362 18.8321 15.1858 18.8815 15.1381C18.9353 15.0861 18.9927 15.0371 19.0521 14.9922" fill="#0080FF"/>
<path d="M17.1667 20.4088V4.59118C17.1667 2.80127 15.0585 1.84464 13.7115 3.02331L8.83333 7.29166H6.75C5.02411 7.29166 3.625 8.69077 3.625 10.4167V14.5833C3.625 16.3092 5.02411 17.7083 6.75 17.7083H8.83333L13.7114 21.9767C15.0585 23.1553 17.1667 22.1987 17.1667 20.4088Z" fill="#0080FF"/>
</svg>
